<svg xmlns="http://www.w3.org/2000/svg" xmlns:xlink="http://www.w3.org/1999/xlink" width="377.401" height="48.405" viewBox="0 0 377.401 48.405">
  <defs>
    <linearGradient id="linear-gradient" x1="1" y1="0.5" x2="0.031" y2="0.5" gradientUnits="objectBoundingBox">
      <stop offset="0" stop-color="#fff"/>
      <stop offset="0.385" stop-color="#fff"/>
      <stop offset="1" stop-color="red"/>
    </linearGradient>
  </defs>
  <path id="Tracé_186" data-name="Tracé 186" d="M26,25.025c6.849,0,12.966-2.327,17.088-6.849l-3.125-3.125A18.258,18.258,0,0,1,26.2,20.637c-11.237,0-19.681-8.245-19.681-19.282S14.962-17.928,26.2-17.928a18.446,18.446,0,0,1,13.764,5.519l3.125-3.125c-4.122-4.521-10.24-6.782-17.022-6.782-14.03,0-24.4,10.04-24.4,23.671S12.037,25.025,26,25.025Zm67.288-.4L81.918,8.669C88.7,6.474,92.557,1.355,92.557-5.959c0-9.974-7.181-15.958-19.016-15.958H56.12V24.626h4.92V9.865h12.5a33.133,33.133,0,0,0,3.723-.2L87.9,24.626ZM73.407,5.676H61.04V-17.662H73.407c9.309,0,14.229,4.255,14.229,11.7C87.636,1.355,82.716,5.676,73.407,5.676Zm67.222-27.594h-4.92L119.751,4.214,103.794-21.917H98.541L117.158,8.536V24.626h4.854V8.536Zm26.6,0H149.805V24.626h4.92V9.932h12.5c11.835,0,19.016-5.984,19.016-15.891C186.242-15.933,179.061-21.917,167.226-21.917ZM167.093,5.61H154.725V-17.662h12.367c9.309,0,14.229,4.255,14.229,11.7C181.322,1.355,176.4,5.61,167.093,5.61ZM206.92,24.626h4.92V-17.662H228.2v-4.255H190.564v4.255H206.92Zm52.2.931c14.894,0,25.865-10.24,25.865-24.2s-10.971-24.2-25.865-24.2-25.865,10.24-25.865,24.2S244.222,25.557,259.116,25.557Zm0-10.9c-7.048,0-12.567-5.253-12.567-13.3s5.519-13.3,12.567-13.3,12.567,5.253,12.567,13.3S266.164,14.653,259.116,14.653Zm49.8-.465,23.471-27.86v-8.245H292.294v10.439h22.873L291.7,16.381v8.245h41.69V14.187Zm45.812.266V5.942h20.679V-3.9H354.729v-7.846H378.2V-21.917H341.7V24.626h37.368V14.453Z" transform="translate(-1.664 22.848)" fill="url(#linear-gradient)"/>
</svg>
